<svg xmlns="http://www.w3.org/2000/svg" viewBox="0 0 512 512"><path d="M266.8 245.7c-0.1-0.1-0.1-0.2-0.2-0.3l-85.6-85.6v-53.8c0-4-1.6-7.8-4.4-10.6l-90-91C82.3 0.1 75.9-1.2 70.3 1.1c-5.6 2.3-9.3 7.8-9.3 13.9v45h-46C8.9 60 3.5 63.6 1.1 69.3c-2.3 5.6-1 12.1 3.3 16.3l91 91c2.8 2.8 6.6 4.4 10.6 4.4h53.8l85.6 85.6c0.1 0.1 0.2 0.1 0.3 0.2 5.8 5.6 14.7 5.6 20.6 0C272.5 260.9 272.4 251.6 266.8 245.7z"/><path d="M256 0c-38.4 0-74.7 9.8-107.3 25l46 46c19.3-6.4 39.9-10 61.3-10C363.5 61 451 148.5 451 256s-87.5 195-195 195S61 363.5 61 256c0-21.4 3.6-42 10-61.3l-46-46C9.8 181.3 0 217.6 0 256c0 140.6 115.4 256 256 256S512 396.6 512 256 396.6 0 256 0z"/><path d="M256 121c-15.9 0-30.9 3.3-45 8.3v18.1l34.7 34.7c3.4-0.5 6.8-1 10.3-1 41.4 0 75 33.6 75 75 0 41.4-33.6 75-75 75 -41.4 0-75-33.6-75-75 0-3.5 0.6-6.9 1-10.3L147.4 211h-18.1c-5 14.1-8.3 29.1-8.3 45 0 74.4 60.6 135 135 135S391 330.4 391 256 330.4 121 256 121z"/></svg>