<svg xmlns="http://www.w3.org/2000/svg" viewBox="0 0 512 512"><path d="M503.1 157.3l-42.3-42.3 31.8-31.8c2.8-2.8 4.4-6.6 4.4-10.6 0-4-1.6-7.8-4.4-10.6l-42.6-42.6c-5.6-5.6-15.6-5.6-21.2 0L396.9 51.1 354.6 8.8c-11.7-11.7-30.7-11.7-42.4 0 -11.7 11.7-11.7 30.7 0 42.4l148.5 148.5c11.7 11.7 30.7 11.7 42.4 0C514.8 188 514.8 169 503.1 157.3z"/><path d="M199.9 460.8L51.4 312.3c-11.7-11.7-30.7-11.7-42.4 0 -11.7 11.7-11.7 30.7 0 42.4l42.3 42.3 -31.8 31.8c-2.8 2.8-4.4 6.6-4.4 10.6s1.6 7.8 4.4 10.6l42.6 42.6c2.9 2.9 6.8 4.4 10.6 4.4s7.7-1.5 10.6-4.4l31.8-31.8 42.3 42.3c11.7 11.7 30.7 11.7 42.4 0C211.6 491.5 211.6 472.5 199.9 460.8z"/><polygon points="269.7 178.5 178.6 269.9 242.3 333.5 333.4 242.1 "/><path d="M460.6 242.1L269.7 51.2c-11.7-11.7-30.7-11.7-42.4 0 -11.7 11.7-11.7 30.7 0 42.4l190.9 190.9c11.7 11.7 30.7 11.7 42.4 0C472.3 272.8 472.3 253.8 460.6 242.1z"/><path d="M284.7 418.4L93.8 227.4c-11.7-11.7-30.7-11.7-42.4 0 -11.7 11.7-11.7 30.7 0 42.4l190.9 190.9c11.7 11.7 30.7 11.7 42.4 0C296.4 449.1 296.4 430.1 284.7 418.4z"/></svg>