<svg xmlns="http://www.w3.org/2000/svg" viewBox="0 0 234.8 234.8"><path d="M7.5 54c-4.1 0-7.5-3.4-7.5-7.5V20.6c0-4.1 3.4-7.5 7.5-7.5h94.9c4.1 0 7.5 3.4 7.5 7.5v25.9c0 4.1-3.4 7.5-7.5 7.5H7.5zM227.3 54c4.1 0 7.5-3.4 7.5-7.5V20.6c0-4.1-3.4-7.5-7.5-7.5h-94.9c-4.1 0-7.5 3.4-7.5 7.5v25.9c0 4.1 3.4 7.5 7.5 7.5H227.3zM164.9 109.9c4.1 0 7.5-3.4 7.5-7.5V76.5c0-4.1-3.4-7.5-7.5-7.5H70c-4.1 0-7.5 3.4-7.5 7.5v25.9c0 4.1 3.4 7.5 7.5 7.5H164.9zM40 109.9c4.1 0 7.5-3.4 7.5-7.5V76.5c0-4.1-3.4-7.5-7.5-7.5H8c-4.1 0-7.5 3.4-7.5 7.5v25.9c0 4.1 3.4 7.5 7.5 7.5H40zM226.8 109.9c4.1 0 7.5-3.4 7.5-7.5V76.5c0-4.1-3.4-7.5-7.5-7.5h-31.9c-4.1 0-7.5 3.4-7.5 7.5v25.9c0 4.1 3.4 7.5 7.5 7.5H226.8zM102.4 165.8c4.1 0 7.5-3.4 7.5-7.5v-25.9c0-4.1-3.4-7.5-7.5-7.5H7.5c-4.1 0-7.5 3.4-7.5 7.5v25.9c0 4.1 3.4 7.5 7.5 7.5H102.4zM227.3 165.8c4.1 0 7.5-3.4 7.5-7.5v-25.9c0-4.1-3.4-7.5-7.5-7.5h-94.9c-4.1 0-7.5 3.4-7.5 7.5v25.9c0 4.1 3.4 7.5 7.5 7.5H227.3zM164.9 221.7c4.1 0 7.5-3.4 7.5-7.5v-25.9c0-4.1-3.4-7.5-7.5-7.5H70c-4.1 0-7.5 3.4-7.5 7.5v25.9c0 4.1 3.4 7.5 7.5 7.5H164.9zM40 221.7c4.1 0 7.5-3.4 7.5-7.5v-25.9c0-4.1-3.4-7.5-7.5-7.5H8c-4.1 0-7.5 3.4-7.5 7.5v25.9c0 4.1 3.4 7.5 7.5 7.5H40zM226.8 221.7c4.1 0 7.5-3.4 7.5-7.5v-25.9c0-4.1-3.4-7.5-7.5-7.5h-31.9c-4.1 0-7.5 3.4-7.5 7.5v25.9c0 4.1 3.4 7.5 7.5 7.5H226.8z"/></svg>